<svg xmlns="http://www.w3.org/2000/svg" viewBox="0 0 425 425"><g id="freepik--books-2--inject-34"><g id="freepik--Book--inject-34"><path d="M81.54,127.52v5s2-1.78,2.06-3.05S81.54,127.52,81.54,127.52Z"></path><path d="M85.42,126.31A5.28,5.28,0,0,1,81.53,133c-5.48,1.73-8.93,0-9.76,1.54s26.05,17,26.05,17l-5.11-22.23Z" style="fill:#3182CE"></path><path d="M87.74,357.92l115.6-66.72V66.69c0-3.2-1.76-4.79-3.93-3.53l-3.92,2.27L87.74,127.62l.1.94Z" style="fill:#3182CE"></path><path d="M87.74,357.92l115.6-66.72V66.69c0-3.2-1.76-4.79-3.93-3.53l-3.92,2.27L87.74,127.62l.1.94Z" style="fill:#fff;opacity:0.2"></path><path d="M101.05,151.9l5.66-6.36L87.93,134.7c-4.37,3.29-7.72,5.05-11.63,3.41Z" style="fill:#455a64"></path><path d="M103.13,144.05a.31.31,0,0,1-.27-.11,1.59,1.59,0,0,1-.26-1v-.31l-14-8.05a5.45,5.45,0,0,0,1.3-3L196.37,70.1a6.95,6.95,0,0,1,6.2,0l17.62,10.16-107.3,61.41a13.11,13.11,0,0,0-2.53-.25,8.87,8.87,0,0,0-5.57,1.75A3.09,3.09,0,0,1,103.13,144.05Z" style="fill:#fafafa"></path><path d="M199.47,69.87h0a6,6,0,0,1,2.86.66l16.85,9.73L112.8,141.15a12.64,12.64,0,0,0-2.44-.23,9.21,9.21,0,0,0-5.88,1.86,3.25,3.25,0,0,1-1.29.76,1.6,1.6,0,0,1-.09-.61l0-.62-.53-.3-13.23-7.63a6,6,0,0,0,1.08-2.55l106.17-61.3a5.91,5.91,0,0,1,2.85-.66m0-1a6.78,6.78,0,0,0-3.35.8L89.39,131.28s.53.76-1.46,3.42l14.17,8.17s-.09,1.68,1,1.68a3.55,3.55,0,0,0,2-1,8.29,8.29,0,0,1,5.25-1.64,11.79,11.79,0,0,1,2.61.28L221.19,80.26,202.82,69.67a6.75,6.75,0,0,0-3.35-.8Z" style="fill:#e0e0e0"></path><path d="M103.13,150.57c1.11-.63,1.58-1.37,1.06-1.67l-.91-.52c-1-.58-.07-2.08,2.11-3.34s4.76-1.82,5.76-1.24l.91.52c.52.3,2.42-.32,4.26-1.38l-.66,230.72L113,375.2a2.58,2.58,0,0,1-1.58-.14l-.9-.53c-1-.58-3.58,0-5.76,1.22s-3.11,2.76-2.11,3.34l.91.52c.52.3,0,1-1,1.68Z" style="fill:#3182CE"></path><path d="M103.13,150.57c1.11-.63,1.58-1.37,1.06-1.67l-.91-.52c-1-.58-.07-2.08,2.11-3.34s4.76-1.82,5.76-1.24l.91.52c.52.3,2.42-.32,4.26-1.38l-.66,230.72L113,375.2a2.58,2.58,0,0,1-1.58-.14l-.9-.53c-1-.58-3.58,0-5.76,1.22s-3.11,2.76-2.11,3.34l.91.52c.52.3,0,1-1,1.68Z" style="fill:#fff;opacity:0.35000000000000003"></path><path d="M113,374.89v.31l2.68-1.55L230.9,307.11V82.59c0-3.2-1.76-4.79-3.93-3.53L223,81.33,113,142.2Z" style="fill:#3182CE"></path><path d="M113,374.89v.31l2.68-1.55L230.9,307.11V82.59c0-3.2-1.76-4.79-3.93-3.53L223,81.33,113,142.2Z" style="fill:#fff;opacity:0.5"></path><path d="M104.39,380.15V149.22l-7.15,2.88V382.39a6.69,6.69,0,0,0,4-.39Z" style="fill:#3182CE"></path><path d="M104.39,380.15V149.22l-7.15,2.88V382.39a6.69,6.69,0,0,0,4-.39Z" style="fill:#fff;opacity:0.5"></path><path d="M68.89,365.24a2.66,2.66,0,0,0,0,.39.61.61,0,0,0,.06.25,2,2,0,0,0,.23.54.84.84,0,0,0,.13.27,4.56,4.56,0,0,0,.61.87,10.69,10.69,0,0,0,.8.87c.32.29.65.57,1,.87a4.36,4.36,0,0,0,.63.48l.53.37c.4.28.82.54,1.28.81l14.66,8.46a23.8,23.8,0,0,0,8.38,3V152.1L68.87,134.89l0,230.29Z" style="fill:#3182CE"></path><g style="opacity:0.8"><path d="M68.89,365.24a2.66,2.66,0,0,0,0,.39.61.61,0,0,0,.06.25,2,2,0,0,0,.23.54.84.84,0,0,0,.13.27,4.56,4.56,0,0,0,.61.87,10.69,10.69,0,0,0,.8.87c.32.29.65.57,1,.87a4.36,4.36,0,0,0,.63.48l.53.37c.4.28.82.54,1.28.81l14.66,8.46a23.8,23.8,0,0,0,8.38,3V152.1L68.87,134.89l0,230.29Z" style="fill:#fff"></path></g><path d="M97.25,168.65v24.08c-9.32-1.84-23.79-10.25-28.38-16.38V152.28C75.29,159.55,87.93,166.43,97.25,168.65Z" style="fill:#fafafa"></path><path d="M97.25,330v24.08c-9.32-1.84-23.79-10.25-28.38-16.38V313.63C75.29,320.9,87.93,327.78,97.25,330Z" style="fill:#fafafa"></path><path d="M90.91,150.32,92.85,147c3.58,2.07,5.12,1.52,6.22,1.4a5.07,5.07,0,0,1,.68-3.27,10,10,0,0,1,3.72-3.42,14.74,14.74,0,0,1,5.63-1.91l.42,0a6.42,6.42,0,0,1,3.45.65l102.22-59,3.47-2,4.43-2.56a2.34,2.34,0,0,1,2.4-.17l3.93,2.26a2.41,2.41,0,0,0-2.46.15l-.06,0-11.72,6.78-98.85,57.07c-1.84,1.06-3.75,1.7-4.27,1.4l-.91-.53a3.23,3.23,0,0,0-2.05-.13,11.07,11.07,0,0,0-3.7,1.35c-2.19,1.26-3.12,2.76-2.11,3.34l.9.52c.52.3,0,1-1,1.67l-2,1.13C99,152.94,95.54,153,90.91,150.32Z" style="fill:#3182CE"></path><path d="M90.91,150.32,92.85,147c3.58,2.07,5.12,1.52,6.22,1.4a5.07,5.07,0,0,1,.68-3.27,10,10,0,0,1,3.72-3.42,14.74,14.74,0,0,1,5.63-1.91l.42,0a6.42,6.42,0,0,1,3.45.65l102.22-59,3.47-2,4.43-2.56a2.34,2.34,0,0,1,2.4-.17l3.93,2.26a2.41,2.41,0,0,0-2.46.15l-.06,0-11.72,6.78-98.85,57.07c-1.84,1.06-3.75,1.7-4.27,1.4l-.91-.53a3.23,3.23,0,0,0-2.05-.13,11.07,11.07,0,0,0-3.7,1.35c-2.19,1.26-3.12,2.76-2.11,3.34l.9.52c.52.3,0,1-1,1.67l-2,1.13C99,152.94,95.54,153,90.91,150.32Z" style="fill:#fff;opacity:0.7000000000000001"></path><path d="M92.85,147,76.13,137.3c-.35-.2-.69-.42-1-.63l-.79-.57a.2.2,0,0,1-.07-.06c2.84,1.24,6.69.06,9.23-1.42a9.84,9.84,0,0,0,3.63-3.36,5.18,5.18,0,0,0,.63-3.64l.34-.2c.23-.14.46-.25.69-.39L187.63,70l5.66-3.28c.53-.3,1.08-.63,1.64-.93L199.72,63a2.25,2.25,0,0,1,2.14,0l-1.08-.62-2.84-1.65a2.18,2.18,0,0,0-2,0s0,0-.05,0c-.57.32-1.15.68-1.77,1l-1.1.64c-.65.39-1.31.75-1.91,1.09-.43.24-.82.46-1.17.68s-.6.33-.84.48l-1.46.83-78.51,45.35L84.05,125.29c-1.79,1-2.84,2.1-2.42,2.45l.15.11.88.51c1.09.63.21,2.15-2,3.4s-3.89,1.28-5,.71l-1.07-.62a1.81,1.81,0,0,0-1.57-.23c-.16.08-.36.21-.57.33s-.77.45-1.24.72-1,.56-1.54.88a1.55,1.55,0,0,0-.82,1.78.47.47,0,0,0,0,.25,1.83,1.83,0,0,0,.23.54h0a.73.73,0,0,0,.11.26,4.56,4.56,0,0,0,.61.87,10.69,10.69,0,0,0,.8.87c.32.29.65.57,1,.87a4.45,4.45,0,0,0,.64.48l.52.37c.4.28.82.55,1.28.81l16.71,9.66Z" style="fill:#3182CE"></path><path d="M92.85,147,76.13,137.3c-.35-.2-.69-.42-1-.63l-.79-.57a.2.2,0,0,1-.07-.06c2.84,1.24,6.69.06,9.23-1.42a9.84,9.84,0,0,0,3.63-3.36,5.18,5.18,0,0,0,.63-3.64l.34-.2c.23-.14.46-.25.69-.39L187.63,70l5.66-3.28c.53-.3,1.08-.63,1.64-.93L199.72,63a2.25,2.25,0,0,1,2.14,0l-1.08-.62-2.84-1.65a2.18,2.18,0,0,0-2,0s0,0-.05,0c-.57.32-1.15.68-1.77,1l-1.1.64c-.65.39-1.31.75-1.91,1.09-.43.24-.82.46-1.17.68s-.6.33-.84.48l-1.46.83-78.51,45.35L84.05,125.29c-1.79,1-2.84,2.1-2.42,2.45l.15.11.88.51c1.09.63.21,2.15-2,3.4s-3.89,1.28-5,.71l-1.07-.62a1.81,1.81,0,0,0-1.57-.23c-.16.08-.36.21-.57.33s-.77.45-1.24.72-1,.56-1.54.88a1.55,1.55,0,0,0-.82,1.78.47.47,0,0,0,0,.25,1.83,1.83,0,0,0,.23.54h0a.73.73,0,0,0,.11.26,4.56,4.56,0,0,0,.61.87,10.69,10.69,0,0,0,.8.87c.32.29.65.57,1,.87a4.45,4.45,0,0,0,.64.48l.52.37c.4.28.82.55,1.28.81l16.71,9.66Z" style="fill:#fff;opacity:0.7000000000000001"></path></g><g id="freepik--book--inject-34"><path d="M119.38,148.74v5s1.94-1.77,2-3S119.38,148.74,119.38,148.74Z"></path><path d="M123.25,147.52a5.27,5.27,0,0,1-3.88,6.72c-5.49,1.73-8.94,0-9.76,1.54s26,17,26,17l-5.1-22.23Z" style="fill:#3182CE"></path><path d="M123.25,147.52a5.27,5.27,0,0,1-3.88,6.72c-5.49,1.73-8.94,0-9.76,1.54s26,17,26,17l-5.1-22.23Z" style="opacity:0.30000000000000004"></path><path d="M125.57,379.14l115.6-66.73V87.91c0-3.21-1.75-4.79-3.92-3.54l-3.92,2.28L125.57,148.83l.1.95Z" style="fill:#3182CE"></path><path d="M138.88,173.11l5.67-6.36-18.78-10.84c-4.37,3.3-7.72,5.06-11.63,3.41Z" style="fill:#455a64"></path><path d="M141,165.26a.35.35,0,0,1-.28-.1,1.79,1.79,0,0,1-.26-1l0-.3-13.95-8.05a5.47,5.47,0,0,0,1.3-3L234.21,91.31a6.95,6.95,0,0,1,6.2,0L258,101.47l-107.3,61.42a12,12,0,0,0-2.52-.26,8.85,8.85,0,0,0-5.57,1.75C141.68,165.15,141.18,165.26,141,165.26Z" style="fill:#fafafa"></path><path d="M237.31,91.08h0a5.8,5.8,0,0,1,2.85.67L257,101.47,150.64,162.36a12.73,12.73,0,0,0-2.44-.23,9.25,9.25,0,0,0-5.89,1.87,3.33,3.33,0,0,1-1.29.76,1.93,1.93,0,0,1-.09-.62l0-.61-.54-.31-13.22-7.63a6.09,6.09,0,0,0,1.08-2.55L234.45,91.75a5.87,5.87,0,0,1,2.86-.67m0-1a6.93,6.93,0,0,0-3.36.8L127.23,152.5s.52.75-1.46,3.41l14.16,8.18s-.09,1.67,1,1.67a3.5,3.5,0,0,0,2-1,8.33,8.33,0,0,1,5.26-1.64,11.26,11.26,0,0,1,2.6.29L259,101.48l-18.37-10.6a6.89,6.89,0,0,0-3.35-.8Z" style="fill:#e0e0e0"></path><path d="M141,171.78c1.1-.63,1.57-1.37,1.05-1.67l-.9-.52c-1-.58-.08-2.08,2.11-3.34S148,164.43,149,165l.91.53c.52.3,2.42-.32,4.26-1.38l-.66,230.71-2.7,1.55a2.47,2.47,0,0,1-1.57-.15l-.91-.52c-1-.58-3.58,0-5.75,1.21s-3.12,2.76-2.11,3.34l.91.53c.52.3,0,1-1.06,1.67Z" style="fill:#3182CE"></path><path d="M141,171.78c1.1-.63,1.57-1.37,1.05-1.67l-.9-.52c-1-.58-.08-2.08,2.11-3.34S148,164.43,149,165l.91.53c.52.3,2.42-.32,4.26-1.38l-.66,230.71-2.7,1.55a2.47,2.47,0,0,1-1.57-.15l-.91-.52c-1-.58-3.58,0-5.75,1.21s-3.12,2.76-2.11,3.34l.91.53c.52.3,0,1-1.06,1.67Z" style="fill:#fff;opacity:0.25"></path><path d="M150.8,396.1v.32l2.69-1.55,115.25-66.54,0-224.52c0-3.21-1.75-4.79-3.92-3.54l-3.92,2.28L150.8,163.42Z" style="fill:#3182CE"></path><path d="M150.8,396.1v.32l2.69-1.55,115.25-66.54,0-224.52c0-3.21-1.75-4.79-3.92-3.54l-3.92,2.28L150.8,163.42Z" style="fill:#fff;opacity:0.4"></path><path d="M142.23,401.37V170.43l-7.15,2.89V403.61a6.7,6.7,0,0,0,3.95-.4Z" style="fill:#3182CE"></path><path d="M142.23,401.37V170.43l-7.15,2.89V403.61a6.7,6.7,0,0,0,3.95-.4Z" style="fill:#fff;opacity:0.4"></path><path d="M106.72,386.46a2.58,2.58,0,0,0,0,.38.57.57,0,0,0,.06.25,1.81,1.81,0,0,0,.22.54,1.34,1.34,0,0,0,.13.27,5.13,5.13,0,0,0,.62.87,8.08,8.08,0,0,0,.8.87c.32.29.65.57,1,.87a5.09,5.09,0,0,0,.64.48l.53.37c.39.28.82.55,1.27.81l14.67,8.46a23.79,23.79,0,0,0,8.37,3V173.32L106.71,156.1V386.46Z" style="fill:#3182CE"></path><g style="opacity:0.7000000000000001"><path d="M106.72,386.46a2.58,2.58,0,0,0,0,.38.57.57,0,0,0,.06.25,1.81,1.81,0,0,0,.22.54,1.34,1.34,0,0,0,.13.27,5.13,5.13,0,0,0,.62.87,8.08,8.08,0,0,0,.8.87c.32.29.65.57,1,.87a5.09,5.09,0,0,0,.64.48l.53.37c.39.28.82.55,1.27.81l14.67,8.46a23.79,23.79,0,0,0,8.37,3V173.32L106.71,156.1V386.46Z" style="fill:#fff"></path></g><path d="M135.08,189.87v24.07c-9.31-1.83-23.79-10.24-28.37-16.37V173.49C113.13,180.76,125.77,187.64,135.08,189.87Z" style="fill:#fafafa"></path><path d="M135.08,351.21v24.08c-9.31-1.84-23.79-10.24-28.37-16.37V334.84C113.13,342.11,125.77,349,135.08,351.21Z" style="fill:#fafafa"></path><path d="M128.75,171.53l1.93-3.35c3.59,2.07,5.12,1.53,6.22,1.4a5.14,5.14,0,0,1,.68-3.27,10.12,10.12,0,0,1,3.72-3.42,15,15,0,0,1,5.64-1.91c.14,0,.29,0,.42,0a6.33,6.33,0,0,1,3.45.65l102.21-59,3.48-2L260.93,98a2.32,2.32,0,0,1,2.4-.18l3.92,2.26a2.39,2.39,0,0,0-2.45.15l-.06,0L253,107.08l-98.86,57.07c-1.84,1.06-3.75,1.7-4.27,1.4L149,165a3.15,3.15,0,0,0-2.05-.14,11.11,11.11,0,0,0-3.71,1.35c-2.18,1.27-3.11,2.76-2.1,3.35l.9.52c.52.3.05,1-1.05,1.67l-2,1.12C136.85,174.16,133.37,174.2,128.75,171.53Z" style="fill:#3182CE"></path><path d="M128.75,171.53l1.93-3.35c3.59,2.07,5.12,1.53,6.22,1.4a5.14,5.14,0,0,1,.68-3.27,10.12,10.12,0,0,1,3.72-3.42,15,15,0,0,1,5.64-1.91c.14,0,.29,0,.42,0a6.33,6.33,0,0,1,3.45.65l102.21-59,3.48-2L260.93,98a2.32,2.32,0,0,1,2.4-.18l3.92,2.26a2.39,2.39,0,0,0-2.45.15l-.06,0L253,107.08l-98.86,57.07c-1.84,1.06-3.75,1.7-4.27,1.4L149,165a3.15,3.15,0,0,0-2.05-.14,11.11,11.11,0,0,0-3.71,1.35c-2.18,1.27-3.11,2.76-2.1,3.35l.9.52c.52.3.05,1-1.05,1.67l-2,1.12C136.85,174.16,133.37,174.2,128.75,171.53Z" style="fill:#fff;opacity:0.6000000000000001"></path><path d="M130.68,168.18,114,158.52l-1-.64-.79-.56a.16.16,0,0,1-.07-.07c2.83,1.24,6.69.06,9.22-1.42a9.71,9.71,0,0,0,3.64-3.36,5.18,5.18,0,0,0,.62-3.64l.34-.2.69-.39,98.86-57.06,5.67-3.28c.53-.29,1.08-.63,1.64-.93l4.78-2.76a2.25,2.25,0,0,1,2.14,0l-1.07-.62L235.77,82a2.16,2.16,0,0,0-2,0s0,0-.05,0c-.57.33-1.15.68-1.77,1l-1.11.63c-.65.39-1.3.75-1.9,1.09-.43.25-.83.47-1.18.69s-.59.33-.83.48l-1.47.83L147,132l-25.07,14.47c-1.8,1-2.84,2.09-2.42,2.44a.65.65,0,0,0,.15.11l.88.51c1.09.63.21,2.15-2,3.4s-3.89,1.29-5,.71l-1.08-.62a1.78,1.78,0,0,0-1.56-.23l-.58.34-1.24.71-1.53.88a1.57,1.57,0,0,0-.83,1.78.54.54,0,0,0,.06.25,2.11,2.11,0,0,0,.22.54h0a1.53,1.53,0,0,0,.11.27,5.48,5.48,0,0,0,.62.86,8.08,8.08,0,0,0,.8.87c.32.3.65.57,1,.87a5.09,5.09,0,0,0,.64.48l.53.38c.39.27.82.54,1.27.8l16.72,9.66Z" style="fill:#3182CE"></path><path d="M130.68,168.18,114,158.52l-1-.64-.79-.56a.16.16,0,0,1-.07-.07c2.83,1.24,6.69.06,9.22-1.42a9.71,9.71,0,0,0,3.64-3.36,5.18,5.18,0,0,0,.62-3.64l.34-.2.69-.39,98.86-57.06,5.67-3.28c.53-.29,1.08-.63,1.64-.93l4.78-2.76a2.25,2.25,0,0,1,2.14,0l-1.07-.62L235.77,82a2.16,2.16,0,0,0-2,0s0,0-.05,0c-.57.33-1.15.68-1.77,1l-1.11.63c-.65.39-1.3.75-1.9,1.09-.43.25-.83.47-1.18.69s-.59.33-.83.48l-1.47.83L147,132l-25.07,14.47c-1.8,1-2.84,2.09-2.42,2.44a.65.65,0,0,0,.15.11l.88.51c1.09.63.21,2.15-2,3.4s-3.89,1.29-5,.71l-1.08-.62a1.78,1.78,0,0,0-1.56-.23l-.58.34-1.24.71-1.53.88a1.57,1.57,0,0,0-.83,1.78.54.54,0,0,0,.06.25,2.11,2.11,0,0,0,.22.54h0a1.53,1.53,0,0,0,.11.27,5.48,5.48,0,0,0,.62.86,8.08,8.08,0,0,0,.8.87c.32.3.65.57,1,.87a5.09,5.09,0,0,0,.64.48l.53.38c.39.27.82.54,1.27.8l16.72,9.66Z" style="fill:#fff;opacity:0.6000000000000001"></path></g></g><g id="freepik--Plants--inject-34"><g id="freepik--Plant--inject-34"><g id="freepik--Pot--inject-34"><path d="M37.42,412.81c-7.83-8.08-12.43-41.61-4.79-48H71.46c7.64,6.4,3,39.92-4.78,48l-.21.22-.27.27c-.22.21-.46.42-.71.63l-.19.15c-.19.15-.38.31-.59.45s-.67.46-1,.66c-6.44,3.75-16.87,3.75-23.31,0h0c-.35-.2-.68-.42-1-.66s-.37-.28-.55-.42l-.23-.19c-.24-.2-.47-.4-.68-.61L37.6,413Z" style="fill:#37474f"></path><path d="M68.09,362.22c8.86,5.17,8.86,13.56,0,18.73S44.86,386.13,36,381s-8.86-13.56,0-18.73S59.23,357,68.09,362.22Z" style="fill:#455a64"></path><path d="M63.83,364.71c6.51,3.8,6.51,10,0,13.75s-17.06,3.8-23.57,0-6.51-10,0-13.76S57.32,360.91,63.83,364.71Z" style="fill:#263238"></path><path d="M40.26,371.24c6.51-3.8,17.06-3.8,23.57,0a10.83,10.83,0,0,1,3.9,3.61,10.83,10.83,0,0,1-3.9,3.61c-6.51,3.8-17.06,3.8-23.57,0a10.83,10.83,0,0,1-3.9-3.61A10.83,10.83,0,0,1,40.26,371.24Z" style="fill:#fafafa"></path></g><path d="M46.73,323c-2.62,3.31-10.5,4.77-14.42-3.35-3.68-7.61-7.58-14.79-8.75-17.6a3,3,0,0,1,1.61-4s-.1-4.33,7.42-2,13,6.41,16.75,13.33S51.55,321.66,46.73,323Z" style="fill:#3182CE"></path><path d="M46.73,323c-2.62,3.31-10.5,4.77-14.42-3.35-3.68-7.61-7.58-14.79-8.75-17.6a3,3,0,0,1,1.61-4s-.1-4.33,7.42-2,13,6.41,16.75,13.33S51.55,321.66,46.73,323Z" style="fill:#fff;opacity:0.45"></path><path d="M50.73,333.81a37.72,37.72,0,0,0-1-4.31,60.28,60.28,0,0,0-3.07-8.23,61.77,61.77,0,0,0-9.65-15,54,54,0,0,0-7.23-7c-.08-.06-.13.11-.07.16A66.94,66.94,0,0,1,41.27,313a67.57,67.57,0,0,1,7.27,15.86c.48,1.57.94,3.14,1.36,4.72s.71,3.24,1.11,4.85c0,.16.3.24.3,0A30.34,30.34,0,0,0,50.73,333.81Z" style="fill:#3182CE"></path><path d="M50.73,333.81a37.72,37.72,0,0,0-1-4.31,60.28,60.28,0,0,0-3.07-8.23,61.77,61.77,0,0,0-9.65-15,54,54,0,0,0-7.23-7c-.08-.06-.13.11-.07.16A66.94,66.94,0,0,1,41.27,313a67.57,67.57,0,0,1,7.27,15.86c.48,1.57.94,3.14,1.36,4.72s.71,3.24,1.11,4.85c0,.16.3.24.3,0A30.34,30.34,0,0,0,50.73,333.81Z" style="opacity:0.30000000000000004"></path><path d="M55.27,317.18C48.43,319.3,43.36,314,45.12,305.6S55.66,287.94,59,290.44c2.07-2.07,6.64-1.33,8.79,5.46S68,320.15,55.27,317.18Z" style="fill:#3182CE"></path><path d="M55.27,317.18C48.43,319.3,43.36,314,45.12,305.6S55.66,287.94,59,290.44c2.07-2.07,6.64-1.33,8.79,5.46S68,320.15,55.27,317.18Z" style="fill:#fff;opacity:0.25"></path><path d="M59.28,295.53a90.38,90.38,0,0,0-4.54,15A144,144,0,0,0,52.1,326.3a244.34,244.34,0,0,0-1.37,30.84c0,2.85.06,5.69.11,8.54s0,5.89.26,8.81c.1,1.11,1.69.82,1.71-.21.1-5.12-.18-10.27-.23-15.39s0-10.14.09-15.2a213.55,213.55,0,0,1,2.77-30.81c.48-2.83,1-5.66,1.69-8.46s1.54-5.85,2.32-8.78C59.48,295.52,59.35,295.37,59.28,295.53Z" style="fill:#3182CE"></path><path d="M59.28,295.53a90.38,90.38,0,0,0-4.54,15A144,144,0,0,0,52.1,326.3a244.34,244.34,0,0,0-1.37,30.84c0,2.85.06,5.69.11,8.54s0,5.89.26,8.81c.1,1.11,1.69.82,1.71-.21.1-5.12-.18-10.27-.23-15.39s0-10.14.09-15.2a213.55,213.55,0,0,1,2.77-30.81c.48-2.83,1-5.66,1.69-8.46s1.54-5.85,2.32-8.78C59.48,295.52,59.35,295.37,59.28,295.53Z" style="opacity:0.30000000000000004"></path><path d="M42.56,340.08c-2,4.05-8.65,5.6-14.68,1s-14.77-25.69-8.16-26c.51-3.28,19.65-1.06,25.82,12.59C50,337.57,42.56,340.08,42.56,340.08Z" style="fill:#3182CE"></path><path d="M42.56,340.08c-2,4.05-8.65,5.6-14.68,1s-14.77-25.69-8.16-26c.51-3.28,19.65-1.06,25.82,12.59C50,337.57,42.56,340.08,42.56,340.08Z" style="fill:#fff;opacity:0.25"></path><path d="M50.57,349a31.76,31.76,0,0,0-2-3.75,86,86,0,0,0-4.75-7.2A86.65,86.65,0,0,0,32,325.09a76.32,76.32,0,0,0-7.6-6.19c-.07,0-.08.11,0,.15,2.16,1.81,4.33,3.59,6.37,5.55s4.09,4.19,6,6.41a109.49,109.49,0,0,1,9.9,13.64c.83,1.36,1.59,2.77,2.44,4.12s1.87,2.75,2.68,4.19c.12.21.43.22.32-.07C51.54,351.59,51.12,350.26,50.57,349Z" style="fill:#3182CE"></path><path d="M50.57,349a31.76,31.76,0,0,0-2-3.75,86,86,0,0,0-4.75-7.2A86.65,86.65,0,0,0,32,325.09a76.32,76.32,0,0,0-7.6-6.19c-.07,0-.08.11,0,.15,2.16,1.81,4.33,3.59,6.37,5.55s4.09,4.19,6,6.41a109.49,109.49,0,0,1,9.9,13.64c.83,1.36,1.59,2.77,2.44,4.12s1.87,2.75,2.68,4.19c.12.21.43.22.32-.07C51.54,351.59,51.12,350.26,50.57,349Z" style="opacity:0.30000000000000004"></path><path d="M55.07,338.36c-3.9-.89-4.1-5.58.79-11.34s17.18-8.26,17.77-5.84c2.73,0,2.73,8.57-3.32,16.43S55.44,343.65,55.07,338.36Z" style="fill:#3182CE"></path><path d="M55.07,338.36c-3.9-.89-4.1-5.58.79-11.34s17.18-8.26,17.77-5.84c2.73,0,2.73,8.57-3.32,16.43S55.44,343.65,55.07,338.36Z" style="fill:#fff;opacity:0.25"></path><path d="M62.73,330a30.93,30.93,0,0,0-11.31,14.59c-.13.34.45.83.59.46a35.93,35.93,0,0,1,10.74-15S62.78,330,62.73,330Z" style="fill:#3182CE"></path><path d="M62.73,330a30.93,30.93,0,0,0-11.31,14.59c-.13.34.45.83.59.46a35.93,35.93,0,0,1,10.74-15S62.78,330,62.73,330Z" style="opacity:0.30000000000000004"></path><path d="M59.54,366.94c-5.41,2.19-3.1,8.63,2.19,13.53a24.22,24.22,0,0,0,16.46,5.93c3.63-.26,4.56-.76,4.56-.76a41.66,41.66,0,0,0,0-9A17.32,17.32,0,0,0,70,363C61.56,360.67,59.54,363.72,59.54,366.94Z" style="fill:#3182CE"></path><path d="M59.54,366.94c-5.41,2.19-3.1,8.63,2.19,13.53a24.22,24.22,0,0,0,16.46,5.93c3.63-.26,4.56-.76,4.56-.76a41.66,41.66,0,0,0,0-9A17.32,17.32,0,0,0,70,363C61.56,360.67,59.54,363.72,59.54,366.94Z" style="fill:#fff;opacity:0.45"></path><path d="M74.52,376.45a44,44,0,0,0-8.29-7.66c-3.08-2-7.19-3.76-10.88-2.49-1.43.49-3.66,1.91-3.39,3.69,0,.17.34.61.55.37a14.15,14.15,0,0,1,2-2.28,5.73,5.73,0,0,1,2.9-1.1A13.48,13.48,0,0,1,65,368.71c3.66,1.94,6.61,5,9.52,7.83C74.5,376.57,74.54,376.48,74.52,376.45Z" style="fill:#3182CE"></path><path d="M74.52,376.45a44,44,0,0,0-8.29-7.66c-3.08-2-7.19-3.76-10.88-2.49-1.43.49-3.66,1.91-3.39,3.69,0,.17.34.61.55.37a14.15,14.15,0,0,1,2-2.28,5.73,5.73,0,0,1,2.9-1.1A13.48,13.48,0,0,1,65,368.71c3.66,1.94,6.61,5,9.52,7.83C74.5,376.57,74.54,376.48,74.52,376.45Z" style="opacity:0.30000000000000004"></path><path d="M39,345.79c.05-2.3-4.1-7-14.25-6.2s-16.82,6.4-18,8.6-1.54,4.37.36,4.55,8.23-.36,12.66.77,13.74,5.17,19.1,2.48S42.19,347.47,39,345.79Z" style="fill:#3182CE"></path><path d="M39,345.79c.05-2.3-4.1-7-14.25-6.2s-16.82,6.4-18,8.6-1.54,4.37.36,4.55,8.23-.36,12.66.77,13.74,5.17,19.1,2.48S42.19,347.47,39,345.79Z" style="fill:#fff;opacity:0.45"></path><path d="M48,352.11c-5.79-7.9-17.09-8.57-25.93-6.9a35.06,35.06,0,0,0-8.42,2.7s0,.11,0,.1A46.57,46.57,0,0,1,28,345.22a30.45,30.45,0,0,1,14.1,2.67,18.27,18.27,0,0,1,5.68,4.42C47.94,352.5,48.07,352.27,48,352.11Z" style="fill:#3182CE"></path><path d="M48,352.11c-5.79-7.9-17.09-8.57-25.93-6.9a35.06,35.06,0,0,0-8.42,2.7s0,.11,0,.1A46.57,46.57,0,0,1,28,345.22a30.45,30.45,0,0,1,14.1,2.67,18.27,18.27,0,0,1,5.68,4.42C47.94,352.5,48.07,352.27,48,352.11Z" style="opacity:0.30000000000000004"></path><path d="M64.78,326.29c-.14,3.88,5.32,6.13,10.6,2.78s10.83-6.62,15.72-7.89,7.22-5.26,5.67-7.19-4-6.81-16.88-5.22-17.43,7.4-19.19,11.49S62.84,327.41,64.78,326.29Z" style="fill:#3182CE"></path><path d="M64.78,326.29c-.14,3.88,5.32,6.13,10.6,2.78s10.83-6.62,15.72-7.89,7.22-5.26,5.67-7.19-4-6.81-16.88-5.22-17.43,7.4-19.19,11.49S62.84,327.41,64.78,326.29Z" style="fill:#fff;opacity:0.45"></path><path d="M85.73,314a14.16,14.16,0,0,0-5.52.58,27.21,27.21,0,0,0-4.73,1.7,26.17,26.17,0,0,0-8,5.82,23.63,23.63,0,0,0-1.81,2.19,9.33,9.33,0,0,0-1.38,2.25c-.08.26.29.67.51.42.64-.74,1.12-1.64,1.72-2.41a24.56,24.56,0,0,1,2.07-2.37,26.37,26.37,0,0,1,5-3.91A30.64,30.64,0,0,1,79,315.56c1.06-.38,2.12-.68,3.21-1a10.93,10.93,0,0,1,3.5-.48C85.76,314.12,85.79,314,85.73,314Z" style="fill:#3182CE"></path><path d="M85.73,314a14.16,14.16,0,0,0-5.52.58,27.21,27.21,0,0,0-4.73,1.7,26.17,26.17,0,0,0-8,5.82,23.63,23.63,0,0,0-1.81,2.19,9.33,9.33,0,0,0-1.38,2.25c-.08.26.29.67.51.42.64-.74,1.12-1.64,1.72-2.41a24.56,24.56,0,0,1,2.07-2.37,26.37,26.37,0,0,1,5-3.91A30.64,30.64,0,0,1,79,315.56c1.06-.38,2.12-.68,3.21-1a10.93,10.93,0,0,1,3.5-.48C85.76,314.12,85.79,314,85.73,314Z" style="opacity:0.30000000000000004"></path><path d="M55.54,347.23c-1.8-1.8-6.7-1.38-9,3.95s2.55,11.16,3.1,12.8c2.23-1.29,4-.52,7.91-1.29a9.85,9.85,0,0,0,7.55-9.81C64.82,348,62.76,344.78,55.54,347.23Z" style="fill:#3182CE"></path><path d="M55.54,347.23c-1.8-1.8-6.7-1.38-9,3.95s2.55,11.16,3.1,12.8c2.23-1.29,4-.52,7.91-1.29a9.85,9.85,0,0,0,7.55-9.81C64.82,348,62.76,344.78,55.54,347.23Z" style="fill:#fff;opacity:0.45"></path><path d="M55.48,346.69a7.28,7.28,0,0,0-2.39,2.48,13.4,13.4,0,0,0-1.55,3,12.61,12.61,0,0,0-.68,6.79c0,.09.08,0,.08-.05a13.88,13.88,0,0,1,1.14-6.7,13.43,13.43,0,0,1,1.62-2.7,14.47,14.47,0,0,1,1.09-1.26,6.33,6.33,0,0,0,1-1C56,347,55.75,346.56,55.48,346.69Z" style="fill:#3182CE"></path><path d="M55.48,346.69a7.28,7.28,0,0,0-2.39,2.48,13.4,13.4,0,0,0-1.55,3,12.61,12.61,0,0,0-.68,6.79c0,.09.08,0,.08-.05a13.88,13.88,0,0,1,1.14-6.7,13.43,13.43,0,0,1,1.62-2.7,14.47,14.47,0,0,1,1.09-1.26,6.33,6.33,0,0,0,1-1C56,347,55.75,346.56,55.48,346.69Z" style="opacity:0.30000000000000004"></path><path d="M48.1,361.55c-1-3.84-5.87-6-12.24-6.47A16.64,16.64,0,0,0,20,363.2c-3.33,5.7-4.71,10.23-2.69,11s10.58,1.93,16.1,2.42,12.41-.5,16.91-4.7S53.37,362.44,48.1,361.55Z" style="fill:#3182CE"></path><path d="M48.1,361.55c-1-3.84-5.87-6-12.24-6.47A16.64,16.64,0,0,0,20,363.2c-3.33,5.7-4.71,10.23-2.69,11s10.58,1.93,16.1,2.42,12.41-.5,16.91-4.7S53.37,362.44,48.1,361.55Z" style="fill:#fff;opacity:0.25"></path><path d="M48.34,361a16.92,16.92,0,0,0-6.87-.32,30.13,30.13,0,0,0-6.49,1.5,41.17,41.17,0,0,0-6.43,2.89c-1.08.59-2.13,1.21-3.17,1.87a24.46,24.46,0,0,0-2.85,2s0,.16,0,.14c1-.47,2-1.13,3-1.69s2.16-1.2,3.26-1.76a46.26,46.26,0,0,1,6.37-2.7A30,30,0,0,1,42,361.49a42,42,0,0,1,6.44.17C48.86,361.69,48.61,361.13,48.34,361Z" style="fill:#3182CE"></path><path d="M48.34,361a16.92,16.92,0,0,0-6.87-.32,30.13,30.13,0,0,0-6.49,1.5,41.17,41.17,0,0,0-6.43,2.89c-1.08.59-2.13,1.21-3.17,1.87a24.46,24.46,0,0,0-2.85,2s0,.16,0,.14c1-.47,2-1.13,3-1.69s2.16-1.2,3.26-1.76a46.26,46.26,0,0,1,6.37-2.7A30,30,0,0,1,42,361.49a42,42,0,0,1,6.44.17C48.86,361.69,48.61,361.13,48.34,361Z" style="opacity:0.30000000000000004"></path><path d="M59.68,352.12c-4.37-3.47-2.92-11.8,12.39-12.25s26.23,3.54,25.75,8.47c2.46,2.46,1.21,9.36-11.18,11.52S56.52,360.94,59.68,352.12Z" style="fill:#3182CE"></path><path d="M59.68,352.12c-4.37-3.47-2.92-11.8,12.39-12.25s26.23,3.54,25.75,8.47c2.46,2.46,1.21,9.36-11.18,11.52S56.52,360.94,59.68,352.12Z" style="fill:#fff;opacity:0.25"></path><path d="M90.62,348.39A65.84,65.84,0,0,0,77,347.6a52.09,52.09,0,0,0-12.63,1.45,18.89,18.89,0,0,0-3.07,1.14q-.69.33-1.35.72c-.34.21-.73.39-.86.8a.42.42,0,0,0,.46.49,16.61,16.61,0,0,0,2.67-1.33,21,21,0,0,1,2.65-1,32.3,32.3,0,0,1,5.32-1.05,94.5,94.5,0,0,1,12.92-.71c2.52,0,5,.22,7.53.42C90.66,348.58,90.69,348.41,90.62,348.39Z" style="fill:#3182CE"></path><path d="M90.62,348.39A65.84,65.84,0,0,0,77,347.6a52.09,52.09,0,0,0-12.63,1.45,18.89,18.89,0,0,0-3.07,1.14q-.69.33-1.35.72c-.34.21-.73.39-.86.8a.42.42,0,0,0,.46.49,16.61,16.61,0,0,0,2.67-1.33,21,21,0,0,1,2.65-1,32.3,32.3,0,0,1,5.32-1.05,94.5,94.5,0,0,1,12.92-.71c2.52,0,5,.22,7.53.42C90.66,348.58,90.69,348.41,90.62,348.39Z" style="opacity:0.30000000000000004"></path></g></g><g id="freepik--Device--inject-34"><g id="freepik--device--inject-34"><path d="M325.38,325.37V60.24c0-6.11-2.17-7.23-4.86-8.78s-5.86-1.73-9.69.48L162.57,137.55a15.3,15.3,0,0,0-6.92,12V414.67c0,4.42,1.35,6,4,7.59s6.68,2.92,10.51.71l148.26-85.61A13,13,0,0,0,325.38,325.37Z" style="fill:#37474f"></path><path d="M319.15,327.61l-151,87.21,0-266.16-10.48-5.94a14.15,14.15,0,0,0-2,6.82V414.67c0,4.42,1.35,6,4,7.59s6.68,2.92,10.51.71l148.26-85.61a13.18,13.18,0,0,0,6-6.69l-.39-.22Z" style="fill:#263238"></path><path d="M318.28,58.19,169.73,144a10.75,10.75,0,0,0-4.86,8.41V415.58c0,4.74,3.37,6.68,7.47,4.3l145.94-84.25a12.23,12.23,0,0,0,5.5-9.54V61.37C323.78,57.87,321.3,56.44,318.28,58.19Z" style="fill:#455a64"></path><path d="M250.29,362.43c0,3.94-2.39,8.51-5.35,10.22s-5.34-.11-5.34-4,2.39-8.52,5.34-10.22S250.29,358.49,250.29,362.43Z" style="fill:#263238"></path><path d="M321.13,83.54V303.69a11.73,11.73,0,0,1-5.3,9.18L175.22,394.06c-2.92,1.7-5.29.33-5.29-3.05V169.22a11.85,11.85,0,0,1,3.71-8l.51-.45a8.19,8.19,0,0,1,1.07-.74L313.9,80l.52-.31C318.11,77.54,321.13,79.28,321.13,83.54Z"></path><path d="M308.14,306.93a11.75,11.75,0,0,0,5.29-9.19V80.24L175.22,160.05a8.19,8.19,0,0,0-1.07.74l-.51.45a11.85,11.85,0,0,0-3.71,8V386.73Z" style="fill:#fafafa"></path></g></g><g id="freepik--book-1--inject-34"><g id="freepik--Ebook--inject-34"><polygon points="183.08 166.8 298.72 100.02 298.72 297.76 183.08 364.54 183.08 166.8" style="fill:#3182CE"></polygon><polygon points="179.84 164.9 183.08 166.8 183.08 364.54 179.84 362.67 179.84 164.9" style="fill:#3182CE"></polygon><polygon points="179.84 164.9 183.08 166.8 183.08 364.54 179.84 362.67 179.84 164.9" style="opacity:0.30000000000000004"></polygon><polygon points="179.84 164.9 295.48 98.12 298.71 100.02 183.08 166.8 179.84 164.9" style="fill:#3182CE"></polygon><polygon points="179.84 164.9 295.48 98.12 298.71 100.02 183.08 166.8 179.84 164.9" style="fill:#fff;opacity:0.35000000000000003"></polygon><path d="M186.4,170.24l3.38,2c4.18,2.46,20.48,1.86,31.27-4.36l87.34-50.45-15.25-8.8Z" style="fill:#e0e0e0"></path><path d="M197.88,355.48c-3.61,0-6.47-.46-7.85-1.28l-3.13-1.84V171.11l2.63,1.56c1.55.91,4.52,1.41,8.35,1.41,6.49,0,16-1.52,23.42-5.79l86.59-50V299.53l-87.09,50.3c-7.22,4.17-16.57,5.65-22.92,5.65Z" style="fill:#fafafa"></path><path d="M307.39,119.16V299.25L220.55,349.4c-7.13,4.12-16.38,5.58-22.67,5.58-3.47,0-6.31-.45-7.59-1.21l-2.89-1.7V172l1.88,1.11c1.62,1,4.68,1.48,8.6,1.48,6.55,0,16.21-1.54,23.67-5.85l85.84-49.57m1-1.73-87.34,50.43c-7,4-16.34,5.72-23.17,5.72-3.68,0-6.64-.48-8.1-1.34l-3.38-2v182.4h0l3.38,2c1.46.87,4.42,1.35,8.1,1.35,6.83,0,16.16-1.67,23.17-5.71l87.3-50.42,0,0V117.43Z" style="fill:#e0e0e0"></path><path d="M221.05,237.91a43.81,43.81,0,0,1-13.5,4.77v3.23a43.81,43.81,0,0,0,13.5-4.77l78.2-45.25v-3.23Z" style="fill:#e0e0e0"></path><path d="M221.05,245.85a44.07,44.07,0,0,1-13.5,4.77v3.22a44.05,44.05,0,0,0,13.5-4.76l78.2-45.26V200.6Z" style="fill:#e0e0e0"></path><path d="M221.05,253.78a43.81,43.81,0,0,1-13.5,4.77v3.23a44.07,44.07,0,0,0,13.5-4.77l78.2-45.25v-3.23Z" style="fill:#e0e0e0"></path><path d="M221.05,261.72a44.05,44.05,0,0,1-13.5,4.76v3.23a43.81,43.81,0,0,0,13.5-4.77l78.2-45.25v-3.22Z" style="fill:#e0e0e0"></path><path d="M221.05,269.65a43.81,43.81,0,0,1-13.5,4.77v3.22a44.05,44.05,0,0,0,13.5-4.76l78.2-45.25V224.4Z" style="fill:#e0e0e0"></path><path d="M221.05,277.58a43.81,43.81,0,0,1-13.5,4.77v3.23a43.81,43.81,0,0,0,13.5-4.77l78.2-45.25v-3.23Z" style="fill:#e0e0e0"></path><path d="M221.05,285.52a43.79,43.79,0,0,1-13.5,4.76v3.23a44.05,44.05,0,0,0,13.5-4.76l78.2-45.26v-3.22Z" style="fill:#e0e0e0"></path><path d="M221.05,293.45a43.81,43.81,0,0,1-13.5,4.77v3.23a44.07,44.07,0,0,0,13.5-4.77l78.2-45.25V248.2Z" style="fill:#e0e0e0"></path><path d="M221.05,301.39a44.05,44.05,0,0,1-13.5,4.76v3.23a43.81,43.81,0,0,0,13.5-4.77l78.2-45.25v-3.22Z" style="fill:#e0e0e0"></path><path d="M221.05,309.32a43.81,43.81,0,0,1-13.5,4.77v3.22a44.05,44.05,0,0,0,13.5-4.76l78.2-45.25v-3.23Z" style="fill:#e0e0e0"></path><path d="M221.05,317.25a43.81,43.81,0,0,1-13.5,4.77v3.23a43.81,43.81,0,0,0,13.5-4.77l78.2-45.25V272Z" style="fill:#e0e0e0"></path><path d="M221.05,325.19a43.79,43.79,0,0,1-13.5,4.76v3.23a43.81,43.81,0,0,0,13.5-4.77l78.2-45.25v-3.22Z" style="fill:#e0e0e0"></path><path d="M296.58,110.6l-31.32,18.48,32.34-17.89Zm6.14,3.55L238.1,150.81l65.67-36Z" style="opacity:0.15"></path><path d="M202.88,173.31c-5.93.61-11,.15-13.1-1.07l-3.38-2v182.4h0l3.38,2c2.08,1.23,7.17,1.69,13.1,1.08Z" style="opacity:0.03"></path><path d="M248,211.11l.72-.6c.44-.37.46-.56.46-1.31v-9.49c0-.75,0-.88-.47-.74l-.71.23v-1.11l4.07-2.35v1.11l-.79.66c-.37.31-.41.55-.41,1.24v9.55c0,.67,0,.83.42.71l.78-.24v1.11L248,212.22Z" style="fill:#455a64"></path><path d="M252.94,208.24l.47-.42a2.93,2.93,0,0,0,.89-1.42l2.3-5.93-2.47-3.77c-.3-.43-.46-.46-.83-.39l-.42.08.15-1.21,3.72-2.15v1.13l-.68.57a.51.51,0,0,0-.06.77l1.6,2.49,1.53-4.2c.21-.56.25-.81-.12-.74l-.61.09.13-1.14,3.26-1.89v1.13l-.52.47a2.61,2.61,0,0,0-.84,1.31l-2.15,5.77,2.53,3.87a.66.66,0,0,0,.9.34l.46-.14V204l-4.06,2.35v-1.13l.65-.54a.57.57,0,0,0,.09-.89l-1.61-2.44-1.68,4.45c-.18.45-.23.74.11.66l.68-.17v1.07l-3.42,2Z" style="fill:#455a64"></path><path d="M249,322.55l1.29-.75v.64l-1.29.74Z" style="fill:#455a64"></path><path d="M251.56,323l.35-.29a.33.33,0,0,0,.12-.31v-2.33c0-.2,0-.31-.16-.23l-.37.21,0-.43.94-.73.12,0V322c0,.22,0,.24.12.2l.33-.11v.38l-1.48.86Z" style="fill:#455a64"></path><path d="M253.32,323.13a2.9,2.9,0,0,0,1.36-2.21c0-.47-.17-.65-.39-.63a4.29,4.29,0,0,1-.46.49l-.05-.44a2.19,2.19,0,0,0,.79-1.58c0-.38-.16-.54-.45-.37a1,1,0,0,0-.43.5.46.46,0,0,1,.13.29.76.76,0,0,1-.3.58c-.23.13-.31,0-.31-.29a2.14,2.14,0,0,1,1-1.63c.55-.32.92-.16.92.52a2.47,2.47,0,0,1-.54,1.44v0c.37-.06.69,0,.69.73a3.79,3.79,0,0,1-1.93,3Z" style="fill:#455a64"></path><path d="M255.71,319.06a3.15,3.15,0,0,1,1.25-2.79c.64-.38,1.25-.27,1.25,1.22a3.17,3.17,0,0,1-1.27,2.87C256.14,320.82,255.71,320.32,255.71,319.06Zm1.89-1.18c0-1.14-.26-1.34-.63-1.13s-.66.93-.66,1.92.24,1.43.64,1.2S257.6,319,257.6,317.88Z" style="fill:#455a64"></path><path d="M259.4,316.55l1.29-.74v.63l-1.29.74Z" style="fill:#455a64"></path><path d="M189.7,172.18l0,9.93v13.07c3.8-5.13,5.22-9.49,5.22-13.07A11.69,11.69,0,0,0,189.7,172.18Z" style="fill:#f0f0f0"></path><path d="M189.7,172.18l0,9.93v13.07c3.8-5.13,5.22-9.49,5.22-13.07A11.69,11.69,0,0,0,189.7,172.18Z" style="fill:#e0e0e0"></path><path d="M189.54,172.09c4.18,2.46,3.25,12.13-7.52,18.4l-87,50.6L79.36,232l107-61.8Z" style="fill:#e0e0e0"></path><polygon points="79.36 232.04 95.03 241.09 95.03 423.49 79.36 414.44 79.36 232.04" style="fill:#e0e0e0"></polygon><polygon points="79.36 232.04 95.03 241.09 95.03 423.49 79.36 414.44 79.36 232.04" style="opacity:0.15"></polygon><path d="M182,190.48l-3.89,2.27L95,241.09v182.4l87-50.61c7.9-4.59,9.8-8.6,9.83-12.18h0V176.17Q191.76,184.65,182,190.48Z" style="fill:#f0f0f0"></path><g style="opacity:0.1"><polygon points="103.79 253.2 178.13 210.25 182.03 207.98 182.03 204.68 178.13 206.95 103.79 249.9 103.79 253.2"></polygon><polygon points="103.79 261.13 178.13 218.18 182.03 215.91 182.03 212.61 178.13 214.88 103.79 257.82 103.79 261.13"></polygon><polygon points="103.79 269.06 178.13 226.11 182.03 223.84 182.03 220.54 178.13 222.81 103.79 265.75 103.79 269.06"></polygon><polygon points="103.79 276.99 178.13 234.04 182.03 231.77 182.03 228.47 178.13 230.74 103.79 273.68 103.79 276.99"></polygon><polygon points="103.79 284.92 178.13 241.97 182.03 239.7 182.03 236.4 178.13 238.66 103.79 281.61 103.79 284.92"></polygon><polygon points="103.79 292.85 178.13 249.9 182.03 247.63 182.03 244.32 178.13 246.59 103.79 289.54 103.79 292.85"></polygon><polygon points="103.79 300.77 178.13 257.83 182.03 255.56 182.03 252.25 178.13 254.52 103.79 297.47 103.79 300.77"></polygon><polygon points="103.79 308.7 178.13 265.76 182.03 263.49 182.03 260.18 178.13 262.45 103.79 305.4 103.79 308.7"></polygon><polygon points="103.79 316.63 178.13 273.69 182.03 271.42 182.03 268.11 178.13 270.38 103.79 313.33 103.79 316.63"></polygon><polygon points="103.79 324.56 178.13 281.62 182.03 279.35 182.03 276.04 178.13 278.31 103.79 321.26 103.79 324.56"></polygon><polygon points="103.79 332.49 178.13 289.55 182.03 287.27 182.03 283.97 178.13 286.24 103.79 329.19 103.79 332.49"></polygon><polygon points="103.79 340.42 178.13 297.48 182.03 295.2 182.03 291.9 178.13 294.17 103.79 337.12 103.79 340.42"></polygon><polygon points="103.79 348.35 178.13 305.4 182.03 303.13 182.03 299.83 178.13 302.1 103.79 345.05 103.79 348.35"></polygon><polygon points="103.79 356.28 178.13 313.33 182.03 311.06 182.03 307.76 178.13 310.03 103.79 352.98 103.79 356.28"></polygon><polygon points="103.79 364.21 178.13 321.26 182.03 318.99 182.03 315.69 178.13 317.96 103.79 360.91 103.79 364.21"></polygon><polygon points="103.79 372.14 178.13 329.19 182.03 326.92 182.03 323.62 178.13 325.89 103.79 368.83 103.79 372.14"></polygon><polygon points="103.79 380.07 178.13 337.12 182.03 334.85 182.03 331.55 178.13 333.82 103.79 376.76 103.79 380.07"></polygon><polygon points="103.79 388 178.13 345.05 182.03 342.78 182.03 339.48 178.13 341.75 103.79 384.69 103.79 388"></polygon><polygon points="103.79 395.93 178.13 352.98 182.03 350.71 182.03 347.41 178.13 349.68 103.79 392.62 103.79 395.93"></polygon></g><path d="M90.8,238.63l31.32-18.48L89.78,238Zm-6.14-3.54,64.62-36.66-65.67,36Z" style="opacity:0.15"></path><path d="M89.78,238v49.62l1-49Zm-5.65,30.54.53-33.49-1-.62Z" style="opacity:0.15"></path><path d="M177.05,174.16a.78.78,0,0,1-.43-.62h0v2.35L180,174A3.25,3.25,0,0,1,177.05,174.16Zm15-7.19.09-.05-7.27,4.19Zm.09-.05.71-.42v-.58A1.3,1.3,0,0,1,192.16,166.92Z" style="fill:#263238"></path><path d="M192.07,167,180,174a3.26,3.26,0,0,1-2.92.21c-.71-.41-.54-1.17.36-1.69l12.11-7a3.29,3.29,0,0,1,2.92-.21C193.14,165.68,193,166.44,192.07,167Z" style="fill:#455a64"></path><path d="M121,244.87c2.17-1.28,18.24-10.82,34.13-21.29s26.63-18.6,31.48-23.86a48.52,48.52,0,0,0,3.52-4.25,29.43,29.43,0,0,0,4.32-7.82V363l0,.44c0,5.09-2.8,10.83-8.2,17.06-12.64,14.58-58.83,41.88-65.3,45.66Z" style="fill:#f5f5f5"></path><path d="M194,190.18V362.4h0v1c0,5-2.76,10.6-8.08,16.73-12.18,14.05-55.75,40-64.42,45.12l.08-180.09c2.94-1.74,18.51-11,33.9-21.16,16.07-10.59,26.7-18.64,31.58-23.93a51.45,51.45,0,0,0,3.56-4.29,33.43,33.43,0,0,0,3.41-5.59m1-8.07c0,3.58-1.42,7.94-5.22,13.07a48.07,48.07,0,0,1-3.49,4.2c-5.66,6.14-18.53,15.31-31.39,23.78-17.18,11.33-34.35,21.42-34.35,21.42L120.42,427s52.43-30.36,66.18-46.21c6.45-7.44,8.29-13.23,8.32-17.38h0V182.11Z" style="fill:#e0e0e0"></path><path d="M195,200.22c0,3.32-1.32,7.37-4.84,12.12a45.12,45.12,0,0,1-3.23,3.89c-3.5,3.79-10,8.83-17.4,14.08-3.74,2.65-7.72,5.35-11.71,8-9.59,6.32-19.17,12.22-25.29,15.93v-3.36c6.12-3.7,15.7-9.61,25.29-15.93,4-2.63,8-5.33,11.71-8,7.44-5.26,13.9-10.29,17.4-14.08a46.75,46.75,0,0,0,3.23-3.9c3.52-4.75,4.84-8.8,4.84-12.12Z" style="fill:#e0e0e0"></path><path d="M195,207.78c0,3.32-1.32,7.37-4.84,12.12a45.12,45.12,0,0,1-3.23,3.89c-3.5,3.79-10,8.83-17.4,14.08-3.74,2.65-7.72,5.35-11.71,8-9.59,6.32-19.17,12.22-25.29,15.93v-3.36c6.12-3.7,15.7-9.61,25.29-15.93,4-2.63,8-5.33,11.71-8,7.44-5.26,13.9-10.29,17.4-14.08a46.75,46.75,0,0,0,3.23-3.9c3.52-4.75,4.84-8.8,4.84-12.12Z" style="fill:#e0e0e0"></path><path d="M195,215.34c0,3.32-1.32,7.37-4.84,12.12a45.12,45.12,0,0,1-3.23,3.89c-3.5,3.79-10,8.83-17.4,14.08-3.74,2.65-7.72,5.35-11.71,8-9.59,6.32-19.17,12.22-25.29,15.93V266c6.12-3.7,15.7-9.61,25.29-15.93,4-2.63,8-5.33,11.71-8,7.44-5.26,13.9-10.29,17.4-14.08a46.75,46.75,0,0,0,3.23-3.9c3.52-4.75,4.84-8.8,4.84-12.12Z" style="fill:#e0e0e0"></path><path d="M195,222.9c0,3.32-1.32,7.37-4.84,12.12a45.12,45.12,0,0,1-3.23,3.89c-3.5,3.79-10,8.83-17.4,14.08-3.74,2.65-7.72,5.35-11.71,8-9.59,6.32-19.17,12.22-25.29,15.93v-3.36c6.12-3.7,15.7-9.61,25.29-15.93,4-2.63,8-5.33,11.71-8,7.44-5.26,13.9-10.29,17.4-14.08a46.75,46.75,0,0,0,3.23-3.9c3.52-4.75,4.84-8.8,4.84-12.12Z" style="fill:#e0e0e0"></path><path d="M195,230.46c0,3.32-1.32,7.37-4.84,12.12a45.12,45.12,0,0,1-3.23,3.89c-3.5,3.79-10,8.83-17.4,14.08-3.74,2.65-7.72,5.35-11.71,8-9.59,6.32-19.17,12.23-25.29,15.93V281.1c6.12-3.7,15.7-9.61,25.29-15.93,4-2.63,8-5.33,11.71-8,7.44-5.26,13.9-10.29,17.4-14.08a48.38,48.38,0,0,0,3.23-3.89c3.52-4.76,4.84-8.81,4.84-12.13Z" style="fill:#e0e0e0"></path><path d="M195,238c0,3.32-1.32,7.37-4.84,12.12a45.12,45.12,0,0,1-3.23,3.89c-3.5,3.79-10,8.83-17.4,14.08-3.74,2.65-7.72,5.35-11.71,8-9.59,6.32-19.17,12.23-25.29,15.93v-3.36c6.12-3.7,15.7-9.6,25.29-15.93,4-2.63,8-5.33,11.71-8,7.44-5.26,13.9-10.29,17.4-14.08a48.38,48.38,0,0,0,3.23-3.89C193.63,242,195,238,195,234.66Z" style="fill:#e0e0e0"></path><path d="M195,245.58c0,3.32-1.32,7.37-4.84,12.12a45.12,45.12,0,0,1-3.23,3.89c-3.5,3.79-10,8.83-17.4,14.09-3.74,2.64-7.72,5.34-11.71,8-9.59,6.32-19.17,12.23-25.29,15.93v-3.36c6.12-3.7,15.7-9.6,25.29-15.93,4-2.63,8-5.33,11.71-8,7.44-5.26,13.9-10.29,17.4-14.08a48.38,48.38,0,0,0,3.23-3.89c3.52-4.76,4.84-8.81,4.84-12.13Z" style="fill:#e0e0e0"></path><path d="M195,253.14c0,3.32-1.32,7.37-4.84,12.12a45.12,45.12,0,0,1-3.23,3.89c-3.5,3.79-10,8.83-17.4,14.09-3.74,2.64-7.72,5.34-11.71,8-9.59,6.32-19.17,12.23-25.29,15.93v-3.36c6.12-3.7,15.7-9.6,25.29-15.93,4-2.63,8-5.33,11.71-8,7.44-5.26,13.9-10.29,17.4-14.08a48.38,48.38,0,0,0,3.23-3.89c3.52-4.76,4.84-8.81,4.84-12.13Z" style="fill:#e0e0e0"></path><path d="M190.11,269.47a48.38,48.38,0,0,1-3.23,3.89c-5.26,5.7-17.19,14.2-29.11,22.05-9.59,6.33-19.17,12.23-25.29,15.93v3.36c6.12-3.7,15.7-9.61,25.29-15.93,11.92-7.86,23.85-16.36,29.11-22.06a45.12,45.12,0,0,0,3.23-3.89c3.52-4.75,4.84-8.8,4.84-12.12v-3.36C195,260.66,193.63,264.71,190.11,269.47Z" style="fill:#e0e0e0"></path><path d="M190.11,277a48.38,48.38,0,0,1-3.23,3.89c-5.26,5.7-17.19,14.2-29.11,22.05-9.59,6.33-19.17,12.23-25.29,15.93v3.36c6.12-3.7,15.7-9.61,25.29-15.93,11.92-7.86,23.85-16.36,29.11-22.05a46.75,46.75,0,0,0,3.23-3.9c3.52-4.75,4.84-8.8,4.84-12.12V264.9C195,268.22,193.63,272.27,190.11,277Z" style="fill:#e0e0e0"></path><path d="M190.11,284.59a48.38,48.38,0,0,1-3.23,3.89c-5.26,5.7-17.19,14.2-29.11,22-9.59,6.33-19.17,12.23-25.29,15.93v3.36c6.12-3.7,15.7-9.61,25.29-15.93,11.92-7.86,23.85-16.36,29.11-22.05a46.75,46.75,0,0,0,3.23-3.9c3.52-4.75,4.84-8.8,4.84-12.12v-3.36C195,275.78,193.63,279.84,190.11,284.59Z" style="fill:#e0e0e0"></path><path d="M141.4,414.26c16.21-10.2,37.22-24.28,45.2-33.48,6.45-7.44,8.29-13.23,8.32-17.38h0V182.11c0,3.58-1.42,7.94-5.22,13.07,0,0,1.91,102.51-7.75,147.49S141.4,414.26,141.4,414.26Z" style="opacity:0.07"></path><polygon points="281.52 116.5 266.55 125.14 282.69 134.46 282.69 169.12 291.1 155.56 297.66 160.53 297.66 125.81 281.52 116.5" style="opacity:0.2"></polygon><polygon points="283.36 115.4 299.5 124.71 299.5 162.37 292.94 157.41 284.53 170.96 284.53 133.36 268.39 124.04 283.36 115.4" style="fill:#3182CE"></polygon><polygon points="283.36 115.4 268.39 124.04 284.53 133.36 299.5 124.71 283.36 115.4" style="fill:#fff;opacity:0.25"></polygon></g></g></svg>